<?xml version="1.0" encoding="utf-8"?>
<!-- Generator: Adobe Illustrator 22.1.0, SVG Export Plug-In . SVG Version: 6.00 Build 0)  -->
<svg version="1.1" id="Layer_1" xmlns="http://www.w3.org/2000/svg" xmlns:xlink="http://www.w3.org/1999/xlink" x="0px" y="0px"
	 viewBox="0 0 199 256" style="enable-background:new 0 0 199 256;" xml:space="preserve">
<style type="text/css">
	.st0{fill:#FFFFFF;}
</style>
<desc>Created with Fabric.js 1.7.22</desc>
<g transform="translate(128 128) scale(0.72 0.72)">
	<g transform="translate(-175.05 -175.05000000000004) scale(3.89 3.89)">
		<path class="st0" d="M58,43.3h-0.4c-1,0-1.9,0.2-2.8,0.6c-0.6-3-3.3-5.2-6.5-5.2h-0.4c-1.1,0-2.2,0.3-3.1,0.8
			c-1-2.4-3.4-4.1-6.1-4.1h-0.4c-0.9,0-1.8,0.2-2.6,0.5v-9.5c0-3.6-3-6.6-6.6-6.6h-0.5c-3.6,0-6.6,3-6.6,6.6v24.3L19,53
			c-2.4,1.8-3.9,4.5-4.3,7.4c-0.4,3,0.5,5.9,2.4,8.3l9.4,11.6v4.6c0,2.8,2.3,5.1,5.1,5.1H55c2.8,0,5.1-2.3,5.1-5.1v-4.4
			c3-3.8,4.6-8.4,4.6-13.2V49.9C64.6,46.3,61.7,43.3,58,43.3z M60.6,67.3c0,4.1-1.5,8.1-4.2,11.2c-0.3,0.4-0.5,0.8-0.5,1.3v5.1
			c0,0.6-0.5,1.1-1.1,1.1H31.5c-0.6,0-1.1-0.5-1.1-1.1v-5.3c0-0.5-0.2-0.9-0.4-1.3l-9.8-12.1c-1.2-1.5-1.7-3.4-1.5-5.3
			c0.2-1.9,1.2-3.6,2.7-4.7l0.6-0.4v5.5c0,1.1,0.9,2,2,2s2-0.9,2-2v-9.5l0,0V26.5c0-1.4,1.2-2.6,2.6-2.6H29c1.4,0,2.6,1.2,2.6,2.6
			V42l0,0l0,0v12.9c0,1.1,0.9,2,2,2l0,0c1.1,0,2-0.9,2-2V42c0-1.4,1.2-2.6,2.6-2.6h0.4c1.4,0,2.6,1.2,2.6,2.6v3.3l0,0l0,0v9.6
			c0,1.1,0.9,2,2,2l0,0c1.1,0,2-0.9,2-2v-9.6c0-1.4,1.2-2.6,2.6-2.6h0.4c1.4,0,2.6,1.2,2.6,2.6v4.1c0,0.1,0,0.1,0,0.2V55
			c0,1.1,0.9,2,2,2l0,0c1.1,0,2-0.9,2-2v-4.9c0-0.1,0-0.1,0-0.2c0-1.4,1.2-2.6,2.6-2.6h0.4c1.4,0,2.6,1.2,2.6,2.6L60.6,67.3
			L60.6,67.3z"/>
		<path class="st0" d="M52.6,25.5H40.4c-1.1,0-2-0.9-2-2s0.9-2,2-2h12.2c1.1,0,2,0.9,2,2S53.7,25.5,52.6,25.5z"/>
		<path class="st0" d="M28.6,16.2c-1.1,0-2-0.9-2-2V2c0-1.1,0.9-2,2-2s2,0.9,2,2v12.2C30.6,15.3,29.7,16.2,28.6,16.2z"/>
		<path class="st0" d="M37.2,18.4c-0.5,0-1-0.2-1.4-0.6c-0.8-0.8-0.8-2,0-2.8l8.6-8.6c0.8-0.8,2-0.8,2.8,0s0.8,2,0,2.8l-8.6,8.7
			C38.2,18.2,37.7,18.4,37.2,18.4z"/>
		<path class="st0" d="M16.8,25.5H4.6c-1.1,0-2-0.9-2-2s0.9-2,2-2h12.2c1.1,0,2,0.9,2,2S17.9,25.5,16.8,25.5z"/>
		<path class="st0" d="M20,18.4c-0.5,0-1-0.2-1.4-0.6L10,9.2c-0.8-0.8-0.8-2,0-2.8s2-0.8,2.8,0l8.6,8.6c0.8,0.8,0.8,2,0,2.8
			C21,18.2,20.5,18.4,20,18.4z"/>
	</g>
</g>
</svg>
